<?xml version="1.0" encoding="UTF-8"?>
<svg width="173px" height="47px" viewBox="0 0 173 47" version="1.1" xmlns="http://www.w3.org/2000/svg" xmlns:xlink="http://www.w3.org/1999/xlink">
    <!-- Generator: Sketch 49.1 (51147) - http://www.bohemiancoding.com/sketch -->
    <title>logo</title>
    <desc>Created with Sketch.</desc>
    <defs></defs>
    <g id="Page-1" stroke="none" stroke-width="1" fill="none" fill-rule="evenodd">
        <g id="Desktop-HD" transform="translate(-150.000000, -20.000000)">
            <g id="logo" transform="translate(150.000000, 20.000000)">
                <path d="M28.05,0 L36.03,0 C37.68,0 39.21,0.33 40.68,0.96 C42.12,1.59 43.41,2.46 44.49,3.54 C45.6,4.65 46.34,5.53 47,7 C47.63,8.44 48.03,10.35 48.03,12 C48.03,13.65 47.73,15.18 47.1,16.62 C46.44,18.09 45.6,19.35 44.52,20.46 C43.44,21.54 42.15,22.41 40.68,23.04 C39.24,23.67 37.68,24 36.03,24 L28.05,24 L28,24 C26.8954305,24 26,23.1045695 26,22 C26,20.8954305 26.8954305,20 28,20 L32,20 C32.0066916,20 32.0133755,20.0000329 32.0200516,20.0000984 L32.04,19.98 L36.03,19.98 C37.14,19.98 38.19,19.77 39.15,19.38 C40.11,18.96 40.98,18.39 41.7,17.64 C42.42,16.89 42.99,16.05 43.41,15.09 C43.83,14.1 44.04,13.08 44.04,12 C44.04,10.92 43.83,9.9 43.41,8.91 C42.99,7.95 42.42,7.11 41.67,6.36 C40.95,5.64 40.08,5.04 39.12,4.62 C38.16,4.23 37.11,4.02 36.03,4.02 L32,4 L28,4 C26.8954305,4 26,3.1045695 26,2 C26,0.8954305 26.8954305,2.02906125e-16 28,0 L28.05,0 Z M5,20 L22,20 C23.1045695,20 24,20.8954305 24,22 C24,23.1045695 23.1045695,24 22,24 L3,24 C1.8954305,24 1,23.1045695 1,22 L1,2 C1,0.8954305 1.8954305,2.02906125e-16 3,0 L22,0 C23.1045695,-2.02906125e-16 24,0.8954305 24,2 C24,3.1045695 23.1045695,4 22,4 L5,4 L5,20 Z M9,10 L15,10 C16.1045695,10 17,10.8954305 17,12 C17,13.1045695 16.1045695,14 15,14 L9,14 C7.8954305,14 7,13.1045695 7,12 C7,10.8954305 7.8954305,10 9,10 Z M28,10 C29.1045695,10 30,10.8954305 30,12 C30,13.1045695 29.1045695,14 28,14 C26.8954305,14 26,13.1045695 26,12 C26,10.8954305 26.8954305,10 28,10 Z" id="Logo" fill="#3C4659"></path>
                <text id="Ideation.-Design.-Pr" opacity="0.900000036" font-family="Poppins" font-size="12" font-weight="bold" fill="#394150">
                    <tspan x="0.304" y="43">Ideation. Design. Prototype</tspan>
                </text>
            </g>
        </g>
    </g>
</svg>